<?xml version="1.0" standalone="no"?>
<!DOCTYPE svg PUBLIC "-//W3C//DTD SVG 20010904//EN"
 "http://www.w3.org/TR/2001/REC-SVG-20010904/DTD/svg10.dtd">
<svg version="1.0" xmlns="http://www.w3.org/2000/svg"
 width="512.000000pt" height="512.000000pt" viewBox="0 0 512.000000 512.000000"
 preserveAspectRatio="xMidYMid meet">
<metadata>
Created by potrace 1.11, written by Peter Selinger 2001-2013
</metadata>
<g transform="translate(0.000000,512.000000) scale(0.100000,-0.100000)"
fill="#000000" stroke="none">
<path d="M2287 4344 c-218 -34 -411 -95 -599 -191 -89 -45 -108 -59 -117 -85
-14 -39 3 -77 43 -97 27 -12 35 -10 155 47 513 247 1071 249 1567 7 550 -268
932 -791 1045 -1431 33 -184 33 -471 1 -630 -52 -260 -144 -438 -313 -606 -80
-80 -217 -176 -313 -222 -85 -40 -107 -87 -65 -140 38 -49 86 -37 256 66 l82
49 38 -41 c165 -184 446 -191 616 -17 28 29 64 81 81 117 29 61 31 72 31 180
0 105 -2 120 -28 171 -38 77 -96 141 -189 206 -59 42 -78 60 -73 72 4 9 14 53
23 99 l16 84 31 -7 c226 -47 416 40 509 235 29 61 31 73 31 175 0 103 -2 114
-32 177 -59 126 -179 215 -321 240 -57 9 -83 9 -161 -6 -51 -9 -94 -16 -95
-14 -4 6 -55 183 -53 183 40 18 174 112 218 152 85 80 122 159 127 279 5 112
-12 177 -68 262 -143 214 -448 243 -645 61 l-41 -38 -80 80 c-316 321 -706
521 -1135 584 -132 19 -419 19 -542 -1z m2209 -688 c170 -79 202 -309 59 -434
-44 -39 -153 -108 -159 -101 -2 2 -31 58 -64 124 -34 66 -88 162 -122 212
l-61 93 22 29 c70 95 214 129 325 77z m321 -1034 c93 -48 147 -135 146 -238
-1 -180 -155 -294 -345 -255 l-55 12 -1 147 c0 81 -6 187 -12 236 -6 49 -8 91
-5 95 4 3 30 11 58 18 72 17 164 10 214 -15z m-296 -1049 c113 -87 152 -205
106 -325 -40 -103 -167 -178 -277 -163 -55 8 -144 57 -173 96 l-19 27 71 82
c81 94 146 189 187 273 16 31 31 57 36 57 4 0 35 -21 69 -47z"/>
<path d="M1364 3946 c-17 -8 -90 -70 -161 -140 l-130 -125 -31 32 c-182 188
-508 159 -653 -57 -55 -83 -72 -148 -67 -260 3 -77 9 -101 36 -157 38 -80 115
-155 230 -226 l79 -48 -26 -90 c-14 -50 -26 -91 -27 -93 -1 -2 -44 5 -95 14
-79 15 -104 15 -162 6 -144 -25 -259 -111 -320 -239 -30 -64 -32 -75 -32 -178
0 -102 2 -114 31 -175 93 -195 282 -282 509 -235 l30 6 17 -83 c9 -46 19 -90
23 -99 5 -12 -14 -30 -73 -72 -174 -122 -244 -262 -220 -439 48 -353 490 -485
731 -219 l37 41 86 -51 c325 -196 800 -299 1379 -299 409 0 951 77 985 140 24
44 9 97 -32 115 -25 10 -45 8 -126 -11 -375 -90 -940 -110 -1377 -48 -540 75
-895 263 -1102 581 -139 213 -187 399 -187 733 0 203 13 314 59 496 99 386
308 732 599 986 113 99 125 125 84 172 -30 32 -56 38 -94 22z m-536 -280 c50
-18 93 -49 121 -87 l22 -29 -61 -93 c-34 -50 -88 -146 -122 -212 -33 -66 -62
-122 -64 -124 -5 -6 -112 61 -155 98 -79 66 -113 177 -85 273 41 144 201 224
344 174z m-303 -1030 c58 -13 54 10 37 -221 -6 -82 -8 -178 -5 -211 l6 -62
-52 -11 c-138 -29 -245 7 -310 106 -119 179 9 414 224 412 28 -1 73 -6 100
-13z m179 -1073 c48 -98 112 -189 190 -271 l75 -79 -42 -41 c-117 -114 -279
-114 -384 1 -71 77 -91 195 -46 280 27 53 145 167 172 167 4 0 20 -26 35 -57z"/>
<path d="M1739 2251 c-22 -17 -24 -29 -27 -113 -3 -83 -1 -96 18 -121 30 -38
90 -38 119 -1 18 23 21 41 21 116 0 81 -2 91 -25 113 -29 30 -74 32 -106 6z"/>
<path d="M3275 2245 c-23 -22 -25 -32 -25 -113 0 -75 3 -93 21 -116 29 -37 89
-37 119 1 19 25 21 38 18 121 -3 84 -5 96 -27 113 -32 26 -77 24 -106 -6z"/>
<path d="M1561 1924 c-12 -15 -21 -37 -21 -49 0 -12 9 -34 21 -49 20 -25 24
-26 130 -26 103 0 111 1 134 25 30 30 32 64 4 99 -20 25 -23 26 -134 26 -111
0 -114 -1 -134 -26z"/>
<path d="M3291 1924 c-28 -35 -26 -69 4 -99 23 -24 31 -25 134 -25 106 0 110
1 130 26 12 15 21 37 21 49 0 12 -9 34 -21 49 -20 25 -23 26 -134 26 -111 0
-114 -1 -134 -26z"/>
<path d="M2276 1889 c-19 -15 -26 -30 -26 -53 0 -92 150 -162 264 -123 42 14
50 14 92 0 114 -39 264 31 264 123 0 23 -7 38 -26 53 -35 28 -63 26 -104 -4
-19 -14 -47 -25 -63 -25 -16 0 -42 11 -59 25 -16 14 -42 25 -58 25 -16 0 -42
-11 -58 -25 -17 -14 -43 -25 -59 -25 -16 0 -44 11 -63 25 -41 30 -69 32 -104
4z"/>
</g>
</svg>
